<?xml version="1.0" standalone="no"?>
<!DOCTYPE svg PUBLIC "-//W3C//DTD SVG 20010904//EN"
 "http://www.w3.org/TR/2001/REC-SVG-20010904/DTD/svg10.dtd">
<svg version="1.0" xmlns="http://www.w3.org/2000/svg"
 width="1280.000000pt" height="1280.000000pt" viewBox="0 0 1280.000000 1280.000000"
 preserveAspectRatio="xMidYMid meet">
<metadata>
Created by potrace 1.14, written by Peter Selinger 2001-2017
</metadata>
<g transform="translate(0.000000,1280.000000) scale(0.100000,-0.100000)"
fill="#000000" stroke="none">
<path d="M7880 12523 c-162 -8 -449 -47 -725 -98 -152 -28 -168 -32 -325 -69
-202 -48 -331 -81 -430 -110 -25 -8 -65 -19 -90 -26 -25 -7 -56 -16 -70 -20
-14 -5 -65 -20 -115 -35 -49 -15 -99 -31 -110 -35 -11 -5 -47 -16 -80 -25 -33
-9 -69 -20 -80 -25 -36 -13 -89 -31 -140 -47 -79 -25 -188 -63 -207 -74 -10
-5 -23 -9 -30 -9 -11 0 -272 -92 -313 -110 -11 -5 -56 -21 -100 -36 -44 -14
-89 -30 -100 -34 -126 -49 -209 -79 -238 -86 -15 -3 -30 -10 -33 -15 -3 -5
-14 -9 -25 -9 -10 0 -27 -4 -37 -9 -31 -17 -157 -61 -174 -61 -9 0 -19 -4 -22
-9 -3 -5 -16 -11 -28 -14 -13 -3 -75 -24 -138 -47 -63 -23 -135 -48 -160 -56
-91 -31 -226 -80 -285 -105 -11 -4 -40 -15 -65 -23 -25 -8 -58 -20 -75 -26
-41 -17 -58 -23 -145 -55 -82 -29 -97 -35 -152 -59 -20 -9 -41 -16 -47 -16 -6
0 -19 -4 -29 -10 -9 -5 -63 -27 -119 -49 -56 -22 -121 -49 -145 -60 -24 -10
-99 -42 -168 -71 -69 -30 -132 -57 -140 -61 -8 -4 -49 -23 -90 -42 -303 -141
-590 -293 -759 -402 -38 -25 -72 -45 -76 -45 -7 0 -156 -100 -165 -111 -3 -3
-34 -25 -70 -50 -303 -206 -685 -577 -870 -844 -56 -82 -110 -167 -110 -174 0
-5 -4 -11 -9 -13 -7 -2 -141 -234 -141 -244 0 -2 -16 -38 -36 -81 -37 -81 -40
-88 -69 -163 -10 -25 -21 -54 -26 -65 -10 -24 -48 -139 -59 -180 -5 -16 -21
-70 -35 -120 -31 -103 -33 -114 -70 -290 -31 -148 -36 -184 -64 -460 -38 -376
-22 -725 55 -1205 14 -85 29 -171 34 -190 4 -19 25 -105 45 -190 40 -168 100
-385 125 -445 4 -11 15 -42 23 -70 19 -59 79 -227 97 -270 7 -16 16 -39 20
-50 28 -74 65 -167 82 -205 11 -25 27 -61 35 -80 41 -94 68 -151 162 -340 95
-192 142 -283 203 -390 78 -138 113 -197 144 -245 19 -30 34 -57 34 -60 0 -3
27 -46 60 -96 33 -49 60 -92 60 -94 0 -17 426 -621 537 -762 80 -102 128 -161
152 -188 14 -17 40 -48 56 -69 43 -55 77 -95 194 -226 41 -47 109 -120 150
-162 41 -43 89 -98 107 -123 32 -45 360 -355 376 -355 4 0 8 23 8 51 0 60 23
157 52 214 11 22 35 74 53 117 93 213 418 688 471 688 8 0 14 7 14 15 0 8 13
36 30 62 16 26 30 55 30 65 0 36 43 129 86 188 24 33 81 95 125 138 45 42 93
95 107 117 25 40 120 150 197 229 23 23 59 50 80 60 73 34 189 114 230 158
105 112 198 173 428 283 119 57 150 62 217 40 35 -12 72 -16 116 -13 35 2 64
1 64 -2 0 -28 -113 -116 -179 -139 -49 -16 -71 -39 -71 -75 -1 -57 -19 -111
-44 -131 -15 -12 -29 -39 -37 -68 -6 -26 -15 -50 -20 -53 -12 -7 -11 -1 6 66
9 36 14 97 13 166 -1 60 2 128 6 150 9 52 -11 64 -58 35 -17 -11 -76 -44 -131
-73 -82 -44 -118 -71 -201 -153 -118 -117 -164 -177 -230 -299 -41 -76 -48
-99 -50 -150 -2 -75 -21 -149 -37 -143 -7 2 -13 12 -15 23 -1 10 -5 30 -8 44
l-6 25 -19 -24 c-10 -13 -19 -31 -19 -42 0 -10 -4 -20 -9 -23 -10 -7 -21 17
-21 47 0 11 -5 37 -11 56 -35 109 -39 111 -88 44 -44 -60 -59 -120 -56 -229 3
-125 -8 -159 -23 -73 -7 36 -12 77 -12 90 0 14 -6 34 -14 44 -13 18 -16 16
-39 -35 -14 -30 -31 -71 -38 -90 -16 -41 -75 -110 -95 -110 -21 0 -18 9 26 80
42 68 46 80 30 80 -12 0 -90 -105 -90 -121 0 -6 -13 -28 -28 -48 -46 -59 -69
-103 -86 -161 -17 -62 -61 -378 -71 -512 -6 -82 -19 -118 -22 -65 -10 124 -3
272 17 360 36 167 12 170 -105 12 -46 -63 -98 -143 -116 -177 -17 -35 -42 -75
-56 -90 -14 -15 -29 -44 -33 -65 -10 -44 -33 -110 -59 -168 -10 -22 -31 -75
-47 -118 -17 -46 -46 -99 -71 -129 -40 -49 -44 -61 -59 -163 -3 -28 5 -38 108
-125 559 -476 1287 -956 1753 -1155 562 -241 993 -355 1470 -392 141 -11 527
1 670 22 338 47 654 133 940 255 916 389 1754 1077 2710 2225 230 275 249 300
504 641 268 357 353 478 344 488 -3 3 -2 6 4 6 12 0 165 203 176 232 4 10 3
18 -1 19 -19 2 -40 9 -76 24 -30 13 -41 14 -46 4 -6 -9 -15 -9 -40 0 -18 6
-52 11 -74 11 -44 0 -71 14 -118 64 -37 38 -63 86 -48 86 6 0 10 10 8 23 -2
18 -10 23 -40 25 -21 2 -38 8 -38 13 0 6 5 7 11 3 6 -3 15 -1 19 6 9 15 1 50
-12 50 -5 0 -6 -5 -2 -12 5 -7 3 -8 -5 -4 -7 5 -21 0 -32 -10 -10 -9 -19 -12
-19 -7 0 6 10 17 22 25 26 18 17 38 -18 38 -14 0 -23 4 -20 9 3 4 -7 7 -23 5
-24 -3 -30 1 -35 21 -4 15 -11 22 -20 19 -9 -3 -13 1 -13 13 2 12 -4 17 -15
15 -10 -2 -18 2 -18 8 0 5 -7 10 -15 10 -8 0 -15 5 -15 11 0 6 9 8 21 4 15 -5
19 -4 15 4 -4 6 -19 11 -34 11 -33 0 -57 14 -48 28 15 25 -82 44 -110 21 -8
-6 -24 -9 -36 -6 -26 7 -62 61 -54 82 7 19 -11 79 -37 119 -36 57 -79 69 -252
69 -140 -1 -225 -11 -365 -43 -25 -6 -69 -14 -98 -17 -44 -5 -55 -2 -68 13
-13 18 -12 61 3 100 8 20 -46 18 -77 -3 -33 -23 -90 -25 -98 -4 -7 17 -23 20
-127 26 -33 1 -97 6 -142 10 -61 6 -86 5 -98 -5 -9 -8 -44 -13 -93 -12 -103 0
-154 8 -164 27 -12 21 -35 19 -41 -4 -4 -18 -9 -18 -48 -9 -24 6 -51 17 -60
24 -8 8 -24 14 -35 14 -14 0 -16 2 -5 9 20 13 -4 24 -35 17 -28 -7 -30 1 -8
32 9 13 14 24 13 26 -2 1 -29 17 -59 35 -52 32 -56 33 -103 22 -27 -6 -80 -11
-119 -11 -65 0 -70 -2 -65 -19 3 -12 -1 -22 -9 -25 -8 -3 -14 -10 -14 -17 0
-6 6 -9 13 -6 17 7 122 -36 149 -60 16 -14 19 -25 14 -56 -7 -43 -44 -127 -56
-127 -4 0 -11 26 -14 58 -4 31 -12 69 -18 84 -14 36 -61 64 -123 73 -27 3 -61
13 -73 22 -13 8 -27 12 -30 8 -7 -7 48 -59 123 -116 29 -22 66 -59 81 -82 l29
-42 0 -185 c0 -175 -14 -374 -36 -520 -16 -103 -18 -110 -37 -110 -16 -1 -16
-1 0 -14 18 -13 18 -22 4 -111 -4 -22 -11 -69 -17 -105 -35 -230 -49 -290 -66
-290 -13 0 -13 -3 -3 -15 17 -20 6 -96 -16 -112 -9 -6 -14 -19 -11 -27 4 -9 1
-18 -5 -22 -7 -4 -7 -9 2 -14 15 -9 2 -60 -17 -67 -8 -3 -18 -1 -22 5 -3 6
-19 14 -34 17 -15 4 -27 11 -27 16 0 10 -36 7 -47 -4 -9 -10 28 -36 44 -30 17
7 17 -14 1 -20 -10 -4 -10 -7 -1 -14 7 -5 14 -20 15 -33 4 -37 -25 -37 -39 0
-6 16 -16 30 -23 30 -6 0 -8 -4 -5 -10 3 -5 1 -10 -4 -10 -6 0 -11 7 -11 15 0
15 -38 55 -52 55 -4 0 -8 -7 -8 -15 0 -8 4 -15 10 -15 10 0 5 -93 -6 -111 -3
-5 -20 -9 -39 -9 -18 0 -35 -6 -38 -12 -5 -17 -57 9 -57 29 0 7 -4 13 -10 13
-16 0 -11 -19 11 -43 15 -16 19 -30 15 -54 -2 -18 0 -35 5 -38 5 -4 9 8 9 24
0 17 5 31 10 31 6 0 10 -13 10 -30 0 -20 5 -30 15 -30 15 0 20 -12 9 -22 -3
-4 -21 0 -40 8 -19 8 -38 13 -42 10 -5 -3 -14 15 -21 40 -14 46 -41 60 -42 22
l0 -23 -9 22 c-5 12 -19 27 -32 34 -25 13 -129 91 -168 126 -14 13 -28 23 -32
23 -5 0 -8 5 -8 11 0 16 -29 41 -40 34 -5 -3 -7 0 -4 8 3 8 -2 17 -11 21 -21
8 -12 53 13 72 14 10 23 6 56 -22 22 -19 42 -31 45 -28 3 3 1 8 -4 12 -25 18
-73 79 -80 100 -5 16 -2 22 9 22 22 0 20 25 -3 41 -10 8 -22 27 -25 42 -6 25
-4 28 14 22 15 -5 19 -3 14 9 -9 25 14 19 27 -6 8 -14 14 -18 17 -10 2 6 12
12 23 12 15 0 18 7 17 38 -1 41 -11 52 -38 45 -15 -4 -17 -10 -10 -29 6 -15 6
-24 0 -24 -10 0 -32 69 -25 80 3 4 -4 10 -15 13 -15 4 -20 14 -20 39 0 48 19
74 21 28 1 -19 1 -37 1 -41 0 -3 8 -11 20 -18 18 -11 19 -10 13 8 -4 14 0 21
15 26 11 3 20 15 20 25 0 11 9 34 20 52 11 18 20 27 20 21 0 -20 28 -15 40 7
9 16 8 19 -6 13 -13 -5 -15 -2 -9 15 4 13 2 22 -4 22 -15 0 -14 42 2 63 11 16
14 15 41 -8 65 -56 84 -14 27 58 -21 26 7 23 36 -5 18 -17 23 -18 23 -6 0 25
63 68 83 57 13 -8 17 -6 17 5 0 8 7 19 17 24 15 9 14 10 -3 16 -10 4 -35 31
-54 61 -26 41 -38 51 -47 43 -10 -8 -13 -6 -13 5 0 21 33 40 47 26 13 -13 53
26 53 52 0 15 5 19 19 14 19 -6 33 6 44 38 4 11 3 16 -3 12 -6 -3 -13 1 -16 9
-3 9 -16 16 -29 16 -18 0 -22 4 -18 20 4 14 0 20 -10 20 -8 0 -17 6 -20 13 -2
6 -8 8 -13 4 -5 -4 -4 -11 2 -15 18 -12 23 -49 6 -49 -8 0 -17 8 -19 18 -7 27
-30 31 -37 6 -5 -18 -8 -20 -16 -7 -5 8 -10 11 -10 6 0 -4 -9 2 -21 15 l-20
24 5 -27 c7 -29 -2 -36 -21 -17 -15 15 23 70 43 62 16 -6 31 24 30 62 -1 26
-5 30 -33 33 -37 4 -41 -6 -17 -46 l16 -27 -21 24 c-12 13 -22 20 -22 17 -1
-3 -2 -9 -3 -13 -1 -8 -43 -53 -48 -53 -2 0 -3 20 -3 45 0 29 5 49 15 55 12 7
12 14 2 43 -10 29 -10 48 3 110 17 83 15 379 -3 413 -5 11 -12 32 -16 48 -7
28 -6 28 23 23 17 -4 31 -3 31 2 0 14 -23 29 -50 33 -15 2 -35 19 -53 44 -26
37 -27 44 -15 63 20 34 49 35 145 5 113 -34 138 -47 194 -99 l45 -42 335 4
334 4 90 -26 c181 -52 236 -65 381 -89 82 -14 187 -36 234 -50 57 -17 110 -26
160 -26 146 0 304 -20 439 -55 111 -29 153 -35 237 -35 56 0 124 -4 151 -10
26 -5 84 -17 128 -25 121 -24 339 -126 512 -243 31 -20 70 -46 87 -56 17 -11
56 -38 86 -61 30 -22 74 -53 96 -68 42 -28 182 -168 240 -240 l32 -39 96 141
c75 110 99 152 106 192 8 43 48 122 125 251 6 9 26 47 46 85 19 37 49 93 66
123 61 110 181 357 228 470 15 36 35 83 45 105 9 22 34 85 55 140 20 55 41
109 46 120 9 22 98 294 117 360 40 137 74 281 97 405 8 47 20 108 25 135 38
207 51 350 57 650 5 240 0 348 -28 565 -6 47 -15 112 -19 145 -11 80 -26 174
-45 265 -8 41 -20 98 -25 125 -8 43 -28 125 -70 295 -5 19 -16 60 -25 90 -9
30 -21 69 -25 85 -5 17 -13 46 -19 65 -6 19 -16 56 -23 82 -8 26 -17 50 -21
54 -4 4 -7 18 -7 30 0 13 -4 25 -9 29 -5 3 -13 20 -17 37 -3 18 -10 39 -15 48
-4 8 -20 49 -34 90 -28 80 -34 95 -59 152 -9 20 -16 39 -16 42 0 3 -14 36 -31
73 -17 38 -45 100 -62 138 -44 98 -192 389 -214 423 -10 15 -32 52 -48 82 -57
110 -312 491 -397 595 -169 206 -265 313 -430 480 -109 110 -212 209 -227 220
-16 11 -55 43 -88 72 -162 142 -448 343 -643 451 -25 14 -63 36 -85 49 -22 12
-92 48 -155 79 -63 31 -122 59 -131 64 -132 68 -538 200 -709 231 -30 5 -93
17 -140 25 -216 39 -414 53 -715 52 -143 -1 -285 -3 -315 -5z m-885 -4443 c3
-5 1 -10 -4 -10 -6 0 -11 5 -11 10 0 6 2 10 4 10 3 0 8 -4 11 -10z m-715 -434
c0 -3 -4 -8 -10 -11 -5 -3 -10 -1 -10 4 0 6 5 11 10 11 6 0 10 -2 10 -4z m480
-21 c13 8 18 -8 9 -30 -6 -17 -8 -17 -8 -2 -1 9 -8 17 -16 17 -9 0 -15 9 -15
23 1 20 2 20 11 4 6 -9 14 -15 19 -12z m-320 -1 c0 -2 -7 -4 -15 -4 -8 0 -15
4 -15 10 0 5 7 7 15 4 8 -4 15 -8 15 -10z m237 -20 c-3 -3 -12 -4 -19 -1 -8 3
-5 6 6 6 11 1 17 -2 13 -5z m-2370 -10 c-3 -3 -12 -4 -19 -1 -8 3 -5 6 6 6 11
1 17 -2 13 -5z m2420 -30 c-9 -9 -28 6 -21 18 4 6 10 6 17 -1 6 -6 8 -13 4
-17z m23 11 c0 -8 -2 -15 -4 -15 -2 0 -6 7 -10 15 -3 8 -1 15 4 15 6 0 10 -7
10 -15z m13 -32 c-7 -2 -19 -2 -25 0 -7 3 -2 5 12 5 14 0 19 -2 13 -5z m69
-23 c8 0 20 6 27 13 11 10 14 10 18 0 3 -7 16 -13 29 -13 14 0 23 -4 20 -9 -3
-5 15 -14 41 -20 36 -10 48 -9 54 0 5 9 17 5 43 -14 19 -15 43 -27 53 -27 10
0 25 -5 33 -11 12 -8 10 -9 -7 -4 -38 11 -46 -6 -12 -24 18 -10 36 -27 40 -39
l8 -21 -50 19 c-27 11 -52 20 -55 20 -3 0 -2 5 1 10 4 7 -2 9 -19 4 -20 -5
-35 1 -60 20 -39 30 -55 34 -35 10 12 -15 11 -16 -11 -9 -14 4 -33 17 -42 29
-13 15 -18 17 -18 6 -1 -12 -3 -12 -14 3 -7 9 -19 17 -25 17 -7 0 -10 4 -6 9
3 6 -10 17 -30 27 -19 9 -32 21 -28 27 4 6 11 4 18 -6 7 -10 19 -17 27 -17z
m-139 3 c-7 -2 -21 -2 -30 0 -10 3 -4 5 12 5 17 0 24 -2 18 -5z m78 -19 c12
-15 11 -16 -10 -9 -16 5 -21 4 -17 -4 4 -6 2 -11 -3 -11 -13 0 -13 3 -5 24 8
20 18 20 35 0z m462 -161 c-7 -2 -21 -2 -30 0 -10 3 -4 5 12 5 17 0 24 -2 18
-5z m-2818 -30 c-5 -10 -13 -33 -19 -50 -6 -18 -14 -33 -18 -33 -4 0 -5 -6 -3
-12 7 -19 -11 -42 -25 -33 -10 6 -10 10 2 19 8 6 16 16 17 21 14 74 27 105 42
105 7 0 8 -7 4 -17z m-95 -113 c-8 -5 -12 -10 -10 -12 32 -20 50 -26 55 -18 8
13 25 13 25 0 0 -5 -6 -10 -14 -10 -7 0 -19 -7 -26 -15 -18 -22 3 -18 34 6 15
12 30 19 33 15 3 -3 11 2 18 11 15 21 35 9 28 -17 -3 -13 0 -20 8 -20 10 -1 9
-5 -4 -14 -11 -9 -14 -15 -7 -18 7 -2 1 -14 -13 -30 -14 -15 -22 -29 -19 -32
3 -3 -3 -6 -13 -6 -15 0 -16 -3 -7 -12 9 -9 7 -17 -10 -35 -16 -17 -18 -23 -7
-24 8 0 4 -4 -8 -9 -15 -6 -20 -15 -16 -29 4 -16 -3 -23 -33 -37 l-39 -17 30
-7 c23 -6 25 -8 8 -9 -12 0 -25 -6 -29 -12 -4 -7 3 -10 17 -9 39 3 44 1 24
-13 -12 -10 -14 -16 -7 -21 17 -10 15 -46 -3 -46 -8 0 -15 -9 -15 -20 0 -11
-5 -20 -11 -20 -5 0 -8 -4 -5 -9 4 -5 0 -11 -6 -13 -15 -5 -21 -299 -6 -309 4
-3 10 -40 11 -81 2 -42 8 -82 13 -89 6 -8 16 -33 21 -56 9 -34 8 -43 -2 -43
-7 0 -15 -6 -18 -12 -6 -20 4 -39 17 -31 6 4 5 -1 -3 -10 -9 -12 -10 -17 -2
-17 7 0 9 -5 6 -10 -4 -6 -11 -7 -17 -4 -11 7 -28 -13 -28 -35 0 -11 3 -11 15
-1 22 18 31 5 11 -15 -9 -9 -16 -30 -16 -46 0 -20 -5 -29 -17 -30 -16 -1 -16
-2 -2 -6 13 -3 15 -11 9 -38 -6 -25 -4 -38 6 -46 15 -12 19 -41 7 -52 -11 -11
-94 173 -119 263 -45 164 -56 246 -55 428 0 95 3 177 5 181 3 4 6 38 7 77 2
86 35 225 57 242 16 12 16 14 -2 28 -11 8 -14 14 -8 14 7 0 12 7 12 15 0 8 4
15 9 15 4 0 8 8 8 18 0 35 4 42 31 56 26 15 26 15 3 13 -13 -1 -26 4 -28 11
-3 7 5 12 19 13 17 1 18 3 6 6 -19 5 -25 23 -7 23 5 0 7 4 4 10 -3 5 7 12 22
16 15 3 33 7 38 9 21 7 29 4 15 -5z m3060 -110 c12 -8 11 -10 -7 -10 -12 0
-23 -5 -25 -12 -3 -7 -7 -5 -11 6 -4 10 -3 15 3 11 6 -3 10 -1 10 4 0 13 10
14 30 1z m-18 -60 c-1 -6 7 -14 19 -17 15 -4 17 -8 8 -14 -10 -6 -10 -12 4
-27 9 -10 17 -26 17 -34 0 -9 7 -21 14 -28 11 -8 12 -18 6 -35 -7 -19 -5 -26
13 -39 l22 -15 -24 0 c-23 -1 -23 -2 -8 -19 21 -24 21 -32 0 -32 -15 0 -15 -1
2 -14 11 -8 16 -19 12 -30 -4 -9 -1 -16 5 -16 9 0 9 -3 0 -12 -8 -8 -18 -9
-35 -1 -19 9 -26 22 -31 60 -5 32 -15 54 -29 65 l-22 17 24 -6 c16 -4 22 -2
18 5 -11 17 4 42 25 42 11 0 16 5 13 11 -4 5 -14 9 -23 7 -18 -3 -55 27 -64
53 -5 13 -2 16 15 12 21 -4 21 -4 4 10 -12 10 -14 17 -8 22 6 3 8 17 5 32 -5
19 -3 24 7 21 8 -3 13 -11 11 -18z m-1489 -181 c-28 -11 -38 -10 -26 2 6 6 9
19 6 28 -5 13 -2 12 16 -4 21 -18 21 -20 4 -26z m43 -177 c14 -20 14 -23 -4
-30 -14 -5 -17 -12 -11 -27 6 -17 8 -17 8 -2 1 24 31 22 31 -3 0 -14 7 -20 23
-20 17 0 29 -10 43 -35 13 -25 23 -33 36 -29 11 3 20 -1 24 -10 3 -9 14 -16
24 -16 12 0 21 -10 25 -30 5 -22 14 -32 38 -39 18 -5 26 -10 19 -10 -20 -1 -3
-21 18 -21 13 0 17 5 14 15 -4 8 -1 15 5 15 6 0 11 -4 11 -10 0 -5 11 -10 25
-10 14 0 25 5 25 11 0 6 14 9 33 7 22 -2 35 -10 42 -25 5 -13 14 -23 20 -24 5
0 1 -4 -10 -9 -18 -8 -17 -9 7 -9 20 -1 26 3 22 14 -4 8 -10 15 -16 15 -5 0
-6 5 -3 10 7 12 62 -17 69 -36 3 -7 -2 -18 -11 -26 -13 -10 -17 -10 -20 0 -4
11 -33 18 -33 8 0 -2 -3 -11 -6 -20 -4 -10 -1 -16 9 -16 9 0 18 -4 21 -8 3 -5
-15 -7 -41 -5 -29 3 -43 1 -39 -6 4 -5 12 -8 19 -6 7 3 26 1 42 -4 l30 -9 -37
-1 c-20 -1 -38 -6 -40 -12 -2 -5 -11 -7 -21 -4 -9 4 -14 11 -11 16 3 5 -1 9
-9 9 -8 0 -17 7 -21 15 -3 8 -10 15 -16 15 -5 0 -10 -7 -10 -15 0 -27 -18 -16
-22 15 -3 21 0 31 11 34 9 3 5 4 -9 3 -18 -1 -25 -8 -25 -22 0 -11 -4 -23 -9
-26 -12 -9 2 -29 20 -29 8 0 14 -4 14 -10 0 -5 -7 -10 -16 -10 -9 0 -12 -5 -8
-12 5 -7 3 -8 -5 -4 -17 11 -81 -2 -81 -16 0 -13 81 -88 96 -88 6 0 29 -25 52
-56 64 -87 53 -165 -17 -121 -14 9 -38 22 -53 28 -16 6 -28 17 -28 23 0 7 -10
18 -23 25 -12 7 -27 22 -32 33 -6 12 -17 25 -25 29 -58 27 -71 31 -95 25 -14
-4 -24 -10 -21 -14 2 -4 -6 -9 -18 -10 -20 -1 -26 6 -36 42 -6 24 -13 56 -13
70 -1 14 -7 26 -14 26 -6 0 -9 9 -6 21 4 14 1 20 -8 19 -29 -4 -50 0 -44 10 3
5 1 18 -4 29 -8 14 -7 20 4 25 8 3 15 1 15 -4 0 -5 12 -3 27 5 16 9 32 11 42
5 17 -8 75 -5 93 6 6 4 13 1 17 -5 5 -8 12 -7 26 3 16 12 17 16 6 30 -24 28
-145 73 -181 67 -8 -2 -12 0 -8 4 4 4 1 14 -7 22 -8 8 -15 23 -15 34 0 12 -7
19 -20 19 -25 0 -25 7 0 48 11 18 18 37 15 42 -3 5 1 23 10 40 8 16 13 30 10
30 -4 0 -4 4 -1 8 10 16 46 6 62 -16z m1344 8 c-13 -8 -13 -11 -1 -19 17 -11
6 -31 -17 -31 -13 0 -13 -2 4 -15 16 -13 16 -14 2 -9 -10 3 -18 1 -18 -5 0 -6
5 -11 11 -11 5 0 7 -4 4 -10 -3 -5 1 -10 9 -10 9 0 16 -7 16 -15 0 -8 7 -15
15 -15 8 0 15 -4 15 -8 0 -5 -7 -9 -15 -9 -8 0 -15 4 -15 9 0 14 -49 9 -57 -7
-7 -12 -13 -11 -33 9 -19 17 -29 20 -41 13 -9 -6 -25 -7 -35 -3 -18 8 -18 8 1
16 11 5 15 9 9 9 -20 1 -24 42 -6 49 9 3 27 17 39 30 20 21 25 23 39 11 15
-12 19 -11 32 9 8 12 24 22 36 22 17 0 18 -2 6 -10z m120 -8 c0 -13 -12 -22
-22 -16 -10 6 -1 24 13 24 5 0 9 -4 9 -8z m73 -71 c2 -11 9 -26 16 -35 12 -14
12 -16 -3 -10 -10 4 -25 -1 -36 -11 -26 -24 -66 -13 -77 22 -7 21 -5 31 13 51
12 13 30 34 40 45 l18 21 13 -32 c7 -18 14 -41 16 -51z m-146 43 c-3 -3 -12
-4 -19 -1 -8 3 -5 6 6 6 11 1 17 -2 13 -5z m33 -24 c0 -5 -7 -7 -15 -4 -10 4
-15 0 -15 -11 0 -9 -5 -13 -11 -9 -6 3 -15 0 -20 -7 -7 -11 -9 -10 -9 4 0 9 7
17 16 17 8 0 12 5 9 10 -4 6 5 10 19 10 14 0 26 -4 26 -10z m5 -69 c3 -5 1
-12 -5 -16 -5 -3 -10 1 -10 9 0 18 6 21 15 7z m75 -43 c0 -4 8 -8 18 -8 16 -1
16 -1 0 -11 -12 -7 -24 -7 -37 0 -10 6 -21 8 -23 5 -3 -3 -8 2 -11 10 -4 11 2
14 24 14 16 -1 29 -5 29 -10z m-1613 -4 c-3 -3 -12 -4 -19 -1 -8 3 -5 6 6 6
11 1 17 -2 13 -5z m1403 -14 c8 -5 13 -10 10 -10 -3 -1 -22 -2 -42 -4 -31 -2
-36 0 -27 11 13 15 38 17 59 3z m-80 -14 c0 -11 -19 -15 -25 -6 -3 5 1 10 9
10 9 0 16 -2 16 -4z m180 -6 c0 -5 -7 -7 -15 -4 -8 4 -15 8 -15 10 0 2 7 4 15
4 8 0 15 -4 15 -10z m-1425 -80 c-3 -5 -13 -10 -21 -10 -8 0 -14 5 -14 10 0 6
9 10 21 10 11 0 17 -4 14 -10z m650 -40 c-3 -5 3 -10 13 -10 11 0 25 -7 32
-15 7 -8 25 -15 41 -15 16 0 29 -4 29 -10 0 -5 8 -7 18 -3 14 5 15 3 5 -7 -10
-11 -8 -17 10 -33 l22 -20 -27 5 c-16 3 -28 1 -28 -5 0 -7 -4 -7 -12 1 -7 7
-16 12 -22 12 -5 0 -7 -3 -3 -6 5 -5 -28 -44 -38 -44 -3 0 -5 9 -5 20 0 23
-31 41 -38 22 -2 -7 -10 -12 -19 -12 -10 0 -12 6 -8 19 5 15 2 18 -13 14 -11
-2 -23 1 -27 7 -5 8 -1 11 11 9 11 -2 25 0 32 4 7 5 14 2 18 -7 3 -9 15 -16
26 -16 17 0 18 3 8 15 -6 8 -9 19 -5 26 5 8 2 8 -11 1 -21 -11 -44 -6 -44 10
0 6 9 8 20 5 21 -5 28 7 10 18 -13 8 -13 25 1 25 5 0 7 -4 4 -10z m-90 -40 c3
-5 -1 -10 -10 -10 -9 0 -13 5 -10 10 3 6 8 10 10 10 2 0 7 -4 10 -10z m572 -6
c-3 -3 -12 -4 -19 -1 -8 3 -5 6 6 6 11 1 17 -2 13 -5z m-568 -55 c17 -6 31
-16 31 -22 0 -7 -4 -7 -12 1 -7 7 -20 12 -29 12 -10 0 -21 5 -24 10 -8 13 -5
12 34 -1z m-75 -8 c4 -5 -3 -7 -14 -4 -23 6 -26 13 -6 13 8 0 17 -4 20 -9z
m-809 -31 c-8 -9 -15 -23 -15 -31 0 -10 2 -11 8 -2 5 8 13 9 22 3 10 -7 11
-10 3 -10 -7 0 -13 -9 -13 -20 0 -13 5 -18 15 -14 22 9 18 -3 -12 -36 -53 -56
-63 -70 -63 -85 0 -8 -4 -15 -10 -15 -5 0 -10 -6 -10 -12 0 -7 -7 -22 -15 -32
-11 -15 -18 -17 -26 -9 -8 8 -20 1 -45 -25 -19 -20 -34 -42 -34 -49 0 -7 -9
-22 -19 -32 -19 -19 -19 -18 -23 15 -2 18 2 54 9 79 10 34 18 45 34 45 13 0
18 4 13 12 -5 7 -2 9 8 5 12 -4 17 3 22 24 3 17 12 29 21 29 15 0 44 58 48 95
1 11 10 23 20 27 10 4 15 12 12 18 -9 14 35 49 53 43 10 -4 10 -9 -3 -23z
m1145 16 c0 -3 -4 -8 -10 -11 -5 -3 -10 -1 -10 4 0 6 5 11 10 11 6 0 10 -2 10
-4z m-180 -16 c0 -5 -6 -10 -14 -10 -8 0 -18 5 -21 10 -3 6 3 10 14 10 12 0
21 -4 21 -10z m142 -9 c-4 -10 -1 -13 11 -8 9 3 19 2 22 -3 4 -6 -5 -10 -19
-10 -14 0 -27 4 -30 9 -3 5 -15 7 -26 4 -22 -6 -28 12 -7 20 25 10 55 3 49
-12z m98 -16 c10 -12 10 -15 -4 -15 -9 0 -16 7 -16 15 0 8 2 15 4 15 2 0 9 -7
16 -15z m-400 -609 c0 -11 -19 -15 -25 -6 -3 5 1 10 9 10 9 0 16 -2 16 -4z
m4270 -1002 c0 -2 -7 -4 -15 -4 -8 0 -15 4 -15 10 0 5 7 7 15 4 8 -4 15 -8 15
-10z m383 -244 c-6 -6 -43 38 -43 52 0 5 11 -4 24 -19 13 -15 22 -30 19 -33z
m-5839 -29 c3 -4 -4 -17 -16 -27 -12 -11 -19 -14 -16 -9 3 6 8 18 11 28 7 19
13 21 21 8z m5896 -32 c17 -30 6 -34 -14 -4 -9 14 -12 25 -7 25 6 0 15 -9 21
-21z m-3299 -31 c1 -13 0 -30 -1 -37 -1 -12 1 -12 12 -3 17 13 64 -3 73 -25 6
-17 -6 -16 -40 1 -15 8 -33 13 -39 10 -6 -2 -19 10 -29 28 -14 25 -15 33 -5
39 21 14 28 10 29 -13z m3624 -249 c17 -6 15 -8 -10 -8 -17 -1 -35 -5 -41 -11
-17 -17 -58 -18 -71 -1 -26 34 -16 42 44 35 32 -3 67 -10 78 -15z m-6049 -224
c9 -50 14 -104 12 -120 -7 -57 -28 71 -32 194 -2 64 -2 94 0 66 2 -27 11 -91
20 -140z m-569 -81 c8 -20 -13 -42 -27 -28 -12 12 -3 44 11 44 5 0 12 -7 16
-16z m610 -159 c4 -38 2 -55 -6 -55 -6 0 -11 11 -11 24 0 13 -3 45 -6 72 -4
39 -3 45 6 31 6 -10 14 -43 17 -72z m2200 38 c-3 -10 -5 -4 -5 12 0 17 2 24 5
18 2 -7 2 -21 0 -30z m-2191 -171 c-12 -11 -18 7 -10 30 l8 23 4 -23 c2 -13 1
-26 -2 -30z m2749 -282 c-3 -5 -12 -10 -18 -10 -7 0 -6 4 3 10 19 12 23 12 15
0z m-2525 -87 c0 -25 -15 -31 -24 -10 -3 9 -9 7 -19 -6 -14 -17 -15 -15 -15
17 0 20 4 36 9 36 5 0 9 -4 9 -10 0 -5 5 -10 11 -10 6 0 8 9 4 23 -7 22 -7 22
9 2 8 -11 16 -30 16 -42z m2650 37 c0 -5 -4 -10 -10 -10 -5 0 -10 5 -10 10 0
6 5 10 10 10 6 0 10 -4 10 -10z m-162 -48 c14 -21 13 -22 -8 -19 -12 2 -26 10
-31 18 -7 10 -8 3 -4 -21 5 -26 4 -31 -4 -20 -14 20 -14 43 1 58 16 16 28 11
46 -16z m-2488 -52 c0 -28 -13 -40 -24 -22 -7 12 5 52 15 52 5 0 9 -13 9 -30z
m1569 -91 c-6 -19 -13 -41 -16 -49 -4 -8 -5 -24 -4 -34 2 -13 -2 -17 -13 -13
-11 4 -16 1 -17 -11 0 -12 -2 -13 -6 -3 -5 12 57 154 64 147 2 -2 -2 -18 -8
-37z m-1672 -41 c-3 -8 -6 -5 -6 6 -1 11 2 17 5 13 3 -3 4 -12 1 -19z m1556
-373 c-3 -9 -8 -14 -10 -11 -3 3 -2 9 2 15 9 16 15 13 8 -4z"/>
<path d="M6855 7510 c3 -5 8 -10 11 -10 2 0 4 5 4 10 0 6 -5 10 -11 10 -5 0
-7 -4 -4 -10z"/>
<path d="M4295 7160 c3 -5 11 -10 16 -10 6 0 7 5 4 10 -3 6 -11 10 -16 10 -6
0 -7 -4 -4 -10z"/>
<path d="M4385 7130 c-3 -5 -2 -10 4 -10 5 0 13 5 16 10 3 6 2 10 -4 10 -5 0
-13 -4 -16 -10z"/>
<path d="M4290 7061 c0 -17 18 -21 24 -6 3 9 0 15 -9 15 -8 0 -15 -4 -15 -9z"/>
<path d="M4375 7000 c-3 -6 1 -7 9 -4 18 7 21 14 7 14 -6 0 -13 -4 -16 -10z"/>
<path d="M4255 5950 c-3 -5 -1 -10 4 -10 6 0 11 5 11 10 0 6 -2 10 -4 10 -3 0
-8 -4 -11 -10z"/>
<path d="M7355 6990 c3 -5 8 -10 11 -10 2 0 4 5 4 10 0 6 -5 10 -11 10 -5 0
-7 -4 -4 -10z"/>
<path d="M7370 6960 c0 -5 5 -10 11 -10 5 0 7 5 4 10 -3 6 -8 10 -11 10 -2 0
-4 -4 -4 -10z"/>
<path d="M6045 6330 c-3 -5 3 -10 14 -10 12 0 21 5 21 10 0 6 -6 10 -14 10 -8
0 -18 -4 -21 -10z"/>
<path d="M6260 6326 c0 -9 30 -14 35 -6 4 6 -3 10 -14 10 -12 0 -21 -2 -21 -4z"/>
<path d="M7145 6610 c-3 -5 -1 -10 4 -10 6 0 11 5 11 10 0 6 -2 10 -4 10 -3 0
-8 -4 -11 -10z"/>
<path d="M7180 6560 c0 -5 5 -10 11 -10 5 0 7 5 4 10 -3 6 -8 10 -11 10 -2 0
-4 -4 -4 -10z"/>
<path d="M7385 6590 c3 -5 8 -10 11 -10 2 0 4 5 4 10 0 6 -5 10 -11 10 -5 0
-7 -4 -4 -10z"/>
<path d="M6580 6280 c19 -13 30 -13 30 0 0 6 -10 10 -22 10 -19 0 -20 -2 -8
-10z"/>
<path d="M7960 5191 c0 -5 5 -13 10 -16 6 -3 10 -2 10 4 0 5 -4 13 -10 16 -5
3 -10 2 -10 -4z"/>
<path d="M8390 5030 c0 -5 5 -10 11 -10 5 0 7 5 4 10 -3 6 -8 10 -11 10 -2 0
-4 -4 -4 -10z"/>
<path d="M8230 4781 c0 -12 39 -21 45 -11 3 4 -2 11 -11 14 -22 8 -34 7 -34
-3z"/>
<path d="M8115 4688 c-11 -28 -1 -53 23 -56 28 -4 29 17 3 49 -17 21 -20 22
-26 7z"/>
<path d="M8220 4662 c0 -20 18 -42 35 -42 6 0 19 6 30 13 17 13 16 15 -15 30
-42 21 -50 21 -50 -1z"/>
<path d="M8234 4556 c-11 -29 4 -46 42 -46 43 0 42 16 -4 43 -29 17 -33 17
-38 3z"/>
<path d="M8210 4471 c0 -15 27 -20 45 -7 14 10 12 12 -14 14 -17 1 -31 -2 -31
-7z"/>
<path d="M8050 4440 c0 -5 5 -10 10 -10 6 0 10 5 10 10 0 6 -4 10 -10 10 -5 0
-10 -4 -10 -10z"/>
<path d="M11260 4170 c0 -5 7 -10 16 -10 8 0 12 5 9 10 -3 6 -10 10 -16 10 -5
0 -9 -4 -9 -10z"/>
<path d="M8030 4111 c12 -23 29 -35 37 -27 7 7 -26 46 -39 46 -5 0 -4 -9 2
-19z"/>
<path d="M8060 3970 c-13 -8 -12 -10 3 -10 9 0 17 5 17 10 0 12 -1 12 -20 0z"/>
<path d="M8139 3945 c-3 -2 -16 -6 -30 -8 -30 -5 -32 -32 -3 -33 31 -2 44 -13
60 -50 12 -28 20 -34 44 -34 17 0 30 4 30 10 0 5 10 9 22 7 43 -4 32 29 -23
64 -28 19 -55 34 -59 34 -5 0 -12 3 -16 8 -8 8 -19 9 -25 2z"/>
<path d="M8325 3890 c3 -5 8 -10 11 -10 2 0 4 5 4 10 0 6 -5 10 -11 10 -5 0
-7 -4 -4 -10z"/>
<path d="M8022 3848 c2 -26 8 -34 27 -36 38 -6 48 14 21 43 -33 36 -52 33 -48
-7z"/>
<path d="M8302 3829 c2 -7 10 -15 17 -17 8 -3 12 1 9 9 -2 7 -10 15 -17 17 -8
3 -12 -1 -9 -9z"/>
<path d="M8310 3797 c0 -16 39 -49 49 -42 17 10 13 25 -7 25 -10 0 -23 5 -30
12 -7 7 -12 9 -12 5z"/>
<path d="M8160 3724 c-13 -34 -7 -42 35 -42 41 0 42 4 10 41 -30 33 -33 33
-45 1z"/>
<path d="M7690 3670 c0 -5 5 -10 10 -10 6 0 10 5 10 10 0 6 -4 10 -10 10 -5 0
-10 -4 -10 -10z"/>
<path d="M7730 3640 c0 -5 5 -10 10 -10 6 0 10 5 10 10 0 6 -4 10 -10 10 -5 0
-10 -4 -10 -10z"/>
<path d="M4066 3525 c4 -8 8 -15 10 -15 2 0 4 7 4 15 0 8 -4 15 -10 15 -5 0
-7 -7 -4 -15z"/>
<path d="M7590 3269 c0 -5 5 -7 10 -4 6 3 10 8 10 11 0 2 -4 4 -10 4 -5 0 -10
-5 -10 -11z"/>
<path d="M7910 3105 c13 -14 25 -23 27 -21 6 6 -30 46 -41 46 -5 0 1 -11 14
-25z"/>
<path d="M8080 3070 c0 -5 5 -10 11 -10 5 0 7 5 4 10 -3 6 -8 10 -11 10 -2 0
-4 -4 -4 -10z"/>
</g>
</svg>
